<svg xmlns="http://www.w3.org/2000/svg" fill="none" viewBox="0 0 106 18">
  <path fill="#000" d="M29.008 16.996a7.846 7.846 0 0 1-3.01-.575 7.867 7.867 0 0 1-2.46-1.638 7.972 7.972 0 0 1-1.632-2.448 7.931 7.931 0 0 1-.572-3.022c0-1.078.19-2.078.572-3a7.647 7.647 0 0 1 1.633-2.448 7.407 7.407 0 0 1 2.459-1.638 7.602 7.602 0 0 1 3.01-.596c1.074 0 2.077.198 3.01.596a7.18 7.18 0 0 1 2.438 1.638 7.212 7.212 0 0 1 1.632 2.448c.396.922.594 1.922.594 3a7.682 7.682 0 0 1-.594 3.022 7.499 7.499 0 0 1-1.632 2.448 7.615 7.615 0 0 1-2.438 1.638 7.845 7.845 0 0 1-3.01.575Zm0-3.256c.551 0 1.067-.107 1.547-.32.48-.226.898-.538 1.251-.936.353-.411.629-.88.827-1.404a5.09 5.09 0 0 0 .296-1.767c0-.638-.098-1.22-.296-1.745a4.336 4.336 0 0 0-.827-1.404 3.503 3.503 0 0 0-1.25-.937 3.577 3.577 0 0 0-1.548-.34c-.551 0-1.067.113-1.548.34-.48.213-.897.525-1.25.937a4.336 4.336 0 0 0-.827 1.404 4.912 4.912 0 0 0-.297 1.745c0 .639.099 1.227.297 1.767.198.525.473.993.827 1.404.353.398.77.71 1.25.937.48.212.997.319 1.548.319ZM38.168 10.85V7.975h7.943v2.873h-7.943ZM53.16 16.996a9.777 9.777 0 0 1-3.348-.575 11.919 11.919 0 0 1-3.074-1.681l1.865-2.703c1.032.724 1.908 1.235 2.629 1.532a5.67 5.67 0 0 0 2.183.447c.523 0 .968-.063 1.336-.191.381-.142.671-.326.869-.553.212-.242.318-.518.318-.83 0-.44-.149-.774-.445-1-.283-.242-.785-.426-1.505-.554l-3.159-.553c-1.173-.199-2.077-.653-2.713-1.362-.622-.71-.933-1.59-.933-2.639 0-.965.233-1.795.7-2.49.466-.71 1.137-1.255 2.013-1.639.89-.383 1.95-.574 3.18-.574 1.145 0 2.254.177 3.328.532 1.074.34 1.993.816 2.756 1.426l-1.844 2.66c-.721-.553-1.442-.965-2.163-1.234a6.422 6.422 0 0 0-2.268-.405c-.48 0-.89.064-1.23.192-.338.113-.6.276-.784.49a1.13 1.13 0 0 0-.254.723c0 .383.127.68.382.894.268.198.7.354 1.293.468l2.968.51c1.384.228 2.437.703 3.158 1.426.72.724 1.081 1.653 1.081 2.788 0 .965-.261 1.816-.784 2.554-.509.738-1.237 1.312-2.184 1.724-.947.411-2.07.617-3.37.617ZM61.88 16.762V1.865h11.213v3.064h-7.568v2.83h7.568v2.98h-7.568v2.958h7.653v3.065H61.879ZM75.258 16.762l5.788-14.897H85.2l5.703 14.897H86.96l-1.23-3.554h-5.426l-1.251 3.554h-3.794Zm6.042-6.385h3.455L83.038 5.44 81.3 10.377ZM92.603 16.762V1.865h3.434l6.593 9.023-.064-9.023H106v14.897h-3.222L95.973 7.44l.064 9.32h-3.434Z"/>
  <path fill="url(#a)" d="M8.99 17.486c4.769 0 8.634-3.882 8.634-8.671 0-4.79-3.865-8.671-8.633-8.671C4.223.144.357 4.026.357 8.814c0 4.79 3.866 8.672 8.634 8.672Z"/>
  <path fill="url(#b)" d="M17.623 9.303c0-.027-.027-.054-.027-.108 0 .054.027.08.027.108Z"/>
  <path fill="url(#c)" d="M6.365 3.727C4.89 5.047 4.193 6.61 3.979 8.601c-.188 1.966.71 3.445 1.165 4.091-.67-1.023-1.648-4.09 1.677-7.538 1.34-1.373 4.397-1.83 6.703-.592 2.68 1.454 3.566 4.228 3.968 5.278 0 .027.188-.539.188-.512a8.602 8.602 0 0 0-.912-4.362c-.241-.35-.536-.673-.805-.97C13.55 1.384 9.18 1.17 6.365 3.727Z"/>
  <path fill="url(#d)" d="M17.65 9.276c-.429-1.05-1.742-3.555-4.45-5.063-1.958-1.104-5.39-.511-6.81.916-3.781 3.77-1.744 6.867-1.234 7.648v-.027c-.027-.054-.054-.081-.08-.135-.537-1.023-1.636-3.878 1.42-6.14.51-.377 3.003-1.831 5.819-.08 1.233.78 2.386 2.665 2.922 4.281.778 2.397.242 3.797.242 3.797s.134-.08.321-.216a.814.814 0 0 0 .134-.188c1.046-1.4 1.234-2.316 1.555-3.635-.027-.054.188-1.131.161-1.158Z"/>
  <path fill="url(#e)" d="M11.565 5.883c-1.823-.593-3.539-.673-5.255.592-3.083 2.505-1.689 5.413-1.153 6.275-.026-.054-.053-.081-.08-.135.054.08.08.135.107.188.054.054.08.108.08.135 0-.027-.026-.027-.026-.054-.322-.646-1.502-3.366 1.26-5.17.536-.35 1.984-1.185 4.317.35 1.206.781 2.064 2.45 2.118 3.608.107 2.64-2.762 5.87-2.735 5.844 1.18-.35 1.555-.135 3.754-1.373.429-.243 1.501-1.535 1.796-1.912a.818.818 0 0 0 .134-.189c.456-4.04-2.681-7.62-4.317-8.16Z"/>
  <path fill="url(#f)" d="M11.836 8.197c-1.582-1.48-4.182-1.804-5.657-.484-2.226 1.965-1.555 4.039-1.1 4.9.054.081.081.135.108.19.053.053.08.107.08.134 0-.027-.027-.027-.027-.054-.268-.593-1.072-2.908 1.02-4.228.965-.62 2.546-.915 3.78.296.83.835 1.448 2.558.482 3.932-2.225 3.204-6.354 3.016-6.354 3.016s.295.485 1.77 1.05c.455.162 2.413.566 3.324.539.939-.027 1.797-.243 1.823-.27.108-.107 4.398-5.6.751-9.02Z"/>
  <path fill="url(#g)" d="M8.991 18H8.51a8.986 8.986 0 0 1-6.194-2.963C.707 13.26-.098 10.944.01 8.547.278 3.592 4.487-.23 9.42.011a8.986 8.986 0 0 1 6.194 2.962c1.609 1.777 2.413 4.093 2.306 6.49a9.056 9.056 0 0 1-2.95 6.22A8.865 8.865 0 0 1 8.991 18ZM8.965.63C4.568.63.895 4.104.68 8.547a8.159 8.159 0 0 0 2.118 6.032 8.159 8.159 0 0 0 5.738 2.747 8.344 8.344 0 0 0 6.005-2.127 8.223 8.223 0 0 0 2.735-5.763 8.424 8.424 0 0 0-2.118-6.032A8.218 8.218 0 0 0 9.394.657C9.26.63 9.099.63 8.964.63Z"/>
  <defs>
    <linearGradient id="a" x1="5.91" x2="12.68" y1="-.5" y2="20.648" gradientUnits="userSpaceOnUse">
      <stop offset=".124" stop-color="#EC3450"/>
      <stop offset=".2" stop-color="#F05855"/>
      <stop offset=".294" stop-color="#F57E5A"/>
      <stop offset=".392" stop-color="#F99D5E"/>
      <stop offset=".494" stop-color="#FBB562"/>
      <stop offset=".602" stop-color="#FDC664"/>
      <stop offset=".719" stop-color="#FFD066"/>
      <stop offset=".863" stop-color="#FFD366"/>
    </linearGradient>
    <linearGradient id="b" x1="13.474" x2="20.071" y1="-2.96" y2="18.309" gradientUnits="userSpaceOnUse">
      <stop offset=".124" stop-color="#EC3450"/>
      <stop offset=".297" stop-color="#F05955"/>
      <stop offset=".631" stop-color="#F89A5E"/>
      <stop offset=".874" stop-color="#FDC364"/>
      <stop offset=".999" stop-color="#FFD366"/>
    </linearGradient>
    <linearGradient id="c" x1="3.932" x2="17.83" y1="7.25" y2="7.25" gradientUnits="userSpaceOnUse">
      <stop stop-color="#2BA8E0"/>
      <stop offset="1" stop-color="#048C9F"/>
    </linearGradient>
    <linearGradient id="d" x1="-4.762" x2="18.351" y1="3.732" y2="11.497" gradientUnits="userSpaceOnUse">
      <stop stop-color="#194A9B"/>
      <stop offset="1" stop-color="#048C9F"/>
    </linearGradient>
    <linearGradient id="e" x1="-1.812" x2="17.886" y1="6.416" y2="14.522" gradientUnits="userSpaceOnUse">
      <stop offset=".167" stop-color="#24408C"/>
      <stop offset="1" stop-color="#0A9DAF"/>
    </linearGradient>
    <linearGradient id="f" x1="4.18" x2="13.3" y1="12.185" y2="12.185" gradientUnits="userSpaceOnUse">
      <stop stop-color="#F6FBFD"/>
      <stop offset=".931" stop-color="#53C3D3"/>
    </linearGradient>
    <linearGradient id="g" x1="2.632" x2="15.371" y1="2.611" y2="15.296" gradientUnits="userSpaceOnUse">
      <stop offset=".124" stop-color="#EC3450"/>
      <stop offset=".438" stop-color="#96517D"/>
      <stop offset=".706" stop-color="#54689F"/>
      <stop offset=".9" stop-color="#2B76B5"/>
      <stop offset=".999" stop-color="#1B7BBD"/>
    </linearGradient>
  </defs>
</svg>
