<svg xmlns="http://www.w3.org/2000/svg" fill="none" viewBox="0 0 131 18">
  <path fill="#000" d="M29.122 16.996a7.903 7.903 0 0 1-3.022-.575 7.9 7.9 0 0 1-2.469-1.638 7.97 7.97 0 0 1-1.638-2.448 7.902 7.902 0 0 1-.575-3.022c0-1.078.192-2.078.575-3a7.644 7.644 0 0 1 1.638-2.448A7.439 7.439 0 0 1 26.1 2.227a7.657 7.657 0 0 1 3.022-.596c1.078 0 2.086.198 3.022.596a7.21 7.21 0 0 1 2.448 1.638 7.208 7.208 0 0 1 1.638 2.448c.398.922.596 1.922.596 3a7.655 7.655 0 0 1-.596 3.022 7.495 7.495 0 0 1-1.638 2.448 7.646 7.646 0 0 1-2.448 1.638 7.903 7.903 0 0 1-3.022.575Zm0-3.256c.553 0 1.071-.107 1.554-.32.482-.226.9-.538 1.255-.936.355-.411.632-.88.83-1.404.199-.54.298-1.128.298-1.767 0-.638-.1-1.22-.298-1.745a4.334 4.334 0 0 0-.83-1.404 3.516 3.516 0 0 0-1.255-.937c-.483-.227-1-.34-1.554-.34a3.6 3.6 0 0 0-1.553.34 3.516 3.516 0 0 0-1.256.937 4.334 4.334 0 0 0-.83 1.404 4.897 4.897 0 0 0-.298 1.745c0 .639.1 1.227.298 1.767.198.525.475.993.83 1.404.355.398.773.71 1.256.937.482.212 1 .319 1.553.319Zm9.196-2.89V7.975h7.974v2.873h-7.974Zm15.052 6.146a9.85 9.85 0 0 1-3.362-.575 11.978 11.978 0 0 1-3.086-1.681l1.873-2.703c1.035.724 1.915 1.235 2.639 1.532a5.712 5.712 0 0 0 2.192.447c.525 0 .972-.063 1.34-.191.383-.142.674-.326.873-.553a1.22 1.22 0 0 0 .32-.83c0-.44-.15-.774-.448-1-.283-.242-.787-.426-1.51-.554l-3.172-.553c-1.177-.199-2.085-.653-2.724-1.362-.624-.71-.936-1.59-.936-2.639 0-.965.234-1.795.702-2.49.468-.71 1.142-1.255 2.022-1.639.894-.383 1.958-.574 3.192-.574 1.15 0 2.263.177 3.342.532 1.078.34 2 .816 2.766 1.426l-1.851 2.66c-.724-.553-1.448-.965-2.171-1.234a6.47 6.47 0 0 0-2.277-.405c-.483 0-.894.064-1.235.192-.34.113-.603.276-.787.49-.17.212-.256.453-.256.723 0 .383.128.68.384.894.27.198.702.354 1.298.468l2.98.51c1.39.228 2.447.703 3.17 1.426.724.724 1.086 1.653 1.086 2.788 0 .965-.263 1.816-.788 2.554-.51.738-1.241 1.312-2.192 1.724-.95.411-2.078.617-3.384.617Zm8.753-.234V1.865h11.258v3.064h-7.597v2.83h7.597v2.98h-7.597v2.958h7.682v3.065H62.123Zm13.432 0 5.81-14.897h4.171l5.725 14.897h-3.958l-1.235-3.554H80.62l-1.255 3.554h-3.81Zm6.066-6.385h3.468L83.366 5.44l-1.745 4.937Zm11.347 6.385V1.865h3.447l6.619 9.023-.064-9.023h3.448v14.897h-3.235L96.352 7.44l.063 9.32h-3.447Z"/>
  <path fill="url(#a)" d="M9.026 17.486c4.787 0 8.667-3.882 8.667-8.671S13.813.144 9.026.144.358 4.026.358 8.815s3.881 8.671 8.668 8.671Z"/>
  <path fill="url(#b)" d="M17.694 9.303c0-.027-.028-.054-.028-.108 0 .054.028.08.028.108Z"/>
  <path fill="url(#c)" d="M6.39 3.727C4.91 5.047 4.21 6.61 3.994 8.602c-.188 1.965.713 3.444 1.17 4.09-.673-1.023-1.654-4.09 1.683-7.537 1.346-1.374 4.415-1.832 6.73-.593 2.691 1.454 3.58 4.228 3.984 5.278 0 .027.188-.538.188-.511a8.573 8.573 0 0 0-.915-4.363c-.242-.35-.539-.673-.808-.97-2.422-2.611-6.81-2.827-9.636-.269Z"/>
  <path fill="url(#d)" d="M17.719 9.276c-.43-1.05-1.75-3.555-4.468-5.063-1.965-1.104-5.41-.511-6.837.916-3.796 3.77-1.75 6.867-1.239 7.648v-.027c-.027-.054-.053-.081-.08-.135-.539-1.023-1.642-3.878 1.426-6.14.512-.377 3.015-1.831 5.841-.08 1.239.78 2.396 2.665 2.934 4.281.781 2.397.243 3.797.243 3.797s.134-.08.323-.216a.82.82 0 0 0 .134-.188c1.05-1.4 1.239-2.316 1.562-3.635-.027-.054.188-1.131.161-1.158Z"/>
  <path fill="url(#e)" d="M11.612 5.883c-1.83-.593-3.553-.673-5.276.592C3.241 8.98 4.641 11.888 5.18 12.75c-.027-.054-.054-.081-.08-.135.053.08.08.135.107.188.054.054.08.108.08.135 0-.027-.026-.027-.026-.054-.323-.646-1.508-3.366 1.265-5.17.538-.35 1.992-1.185 4.333.35 1.212.781 2.073 2.45 2.127 3.608.108 2.64-2.772 5.87-2.746 5.844 1.185-.35 1.562-.135 3.769-1.373.43-.243 1.507-1.535 1.803-1.912a.816.816 0 0 0 .135-.189c.458-4.04-2.692-7.62-4.334-8.16Z"/>
  <path fill="url(#f)" d="M11.882 8.198c-1.589-1.482-4.2-1.805-5.68-.485-2.234 1.966-1.561 4.04-1.104 4.9.054.082.081.136.108.19.054.053.08.107.08.134 0-.027-.026-.027-.026-.054-.27-.592-1.077-2.908 1.023-4.228.969-.619 2.557-.915 3.795.297.835.834 1.454 2.558.485 3.931-2.235 3.205-6.38 3.016-6.38 3.016s.296.485 1.777 1.05c.457.162 2.422.566 3.337.539.943-.027 1.804-.242 1.83-.27.108-.107 4.415-5.6.755-9.02Z"/>
  <path fill="url(#g)" d="M9.027 18h-.485a9.035 9.035 0 0 1-6.218-2.963C.71 13.26-.098 10.944.01 8.547.279 3.592 4.505-.23 9.458.011a9.036 9.036 0 0 1 6.218 2.962c1.615 1.777 2.422 4.093 2.315 6.49a9.042 9.042 0 0 1-2.961 6.22A8.92 8.92 0 0 1 9.027 18ZM9 .63C4.586.63.898 4.104.682 8.547A8.14 8.14 0 0 0 2.81 14.58a8.204 8.204 0 0 0 5.76 2.747A8.397 8.397 0 0 0 14.6 15.2a8.21 8.21 0 0 0 2.745-5.763 8.405 8.405 0 0 0-2.126-6.032A8.264 8.264 0 0 0 9.431.657C9.296.63 9.135.63 9 .63Z"/>
  <path fill="#333" d="M110.723 9h2.705c1.65 0 2.392-.82 2.392-1.904 0-1.094-.761-1.71-1.465-1.748v-.069c.65-.166 1.192-.61 1.192-1.494 0-1.05-.728-1.855-2.236-1.855h-2.588V9Zm1.074-.918V5.826h1.572c.85 0 1.387.542 1.387 1.22 0 .587-.41 1.031-1.426 1.036h-1.533Zm0-3.096V2.848h1.445c.845 0 1.25.44 1.25 1.025 0 .679-.556 1.108-1.269 1.113h-1.426Zm7.373 4.121c1.167 0 1.982-.576 2.217-1.435h-1.055c-.176.322-.561.576-1.152.576-.869 0-1.465-.571-1.494-1.582h3.769v-.371c0-1.919-1.147-2.666-2.353-2.666-1.48 0-2.456 1.123-2.452 2.754-.004 1.645.957 2.724 2.52 2.724Zm-1.48-3.222c.044-.747.586-1.402 1.421-1.397.796-.005 1.319.591 1.319 1.397h-2.74Zm7.281-2.188h-1.084v-1.27h-1.035v1.27h-.782v.83h.782v3.125c-.01.967.727 1.416 1.543 1.416.288 0 .512-.02.654-.039v-.908c-.147.015-.376.03-.528.03-.336-.005-.629-.113-.634-.713v-2.91h1.084v-.83Zm.771 3.809c-.005 1.035.781 1.611 1.787 1.611.879 0 1.367-.444 1.573-.84h.039V9h1.015V5.475c-.005-1.538-1.235-1.846-2.08-1.846-1.255 0-2.075.635-2.168 1.514h1.035c.108-.391.479-.674 1.094-.674.708 0 1.079.346 1.074.947l.005.425c-.244.01-1.04.054-1.391.073-.957.068-1.988.38-1.983 1.592Zm1.016.01c0-.523.43-.782 1.113-.83.249-.015 1.006-.069 1.245-.083l.005.483c0 .63-.508 1.196-1.357 1.201-.586-.005-1.006-.264-1.006-.771Z"/>
  <defs>
    <linearGradient id="a" x1="5.933" x2="12.681" y1="-.5" y2="20.664" gradientUnits="userSpaceOnUse">
      <stop offset=".124" stop-color="#EC3450"/>
      <stop offset=".2" stop-color="#F05855"/>
      <stop offset=".294" stop-color="#F57E5A"/>
      <stop offset=".392" stop-color="#F99D5E"/>
      <stop offset=".494" stop-color="#FBB562"/>
      <stop offset=".602" stop-color="#FDC664"/>
      <stop offset=".719" stop-color="#FFD066"/>
      <stop offset=".863" stop-color="#FFD366"/>
    </linearGradient>
    <linearGradient id="b" x1="13.544" x2="20.141" y1="-2.96" y2="18.309" gradientUnits="userSpaceOnUse">
      <stop offset=".124" stop-color="#EC3450"/>
      <stop offset=".297" stop-color="#F05955"/>
      <stop offset=".631" stop-color="#F89A5E"/>
      <stop offset=".874" stop-color="#FDC364"/>
      <stop offset=".999" stop-color="#FFD366"/>
    </linearGradient>
    <linearGradient id="c" x1="3.948" x2="17.9" y1="7.251" y2="7.251" gradientUnits="userSpaceOnUse">
      <stop stop-color="#2BA8E0"/>
      <stop offset="1" stop-color="#048C9F"/>
    </linearGradient>
    <linearGradient id="d" x1="-4.782" x2="18.404" y1="3.732" y2="11.552" gradientUnits="userSpaceOnUse">
      <stop stop-color="#194A9B"/>
      <stop offset="1" stop-color="#048C9F"/>
    </linearGradient>
    <linearGradient id="e" x1="-1.818" x2="17.935" y1="6.416" y2="14.577" gradientUnits="userSpaceOnUse">
      <stop offset=".167" stop-color="#24408C"/>
      <stop offset="1" stop-color="#0A9DAF"/>
    </linearGradient>
    <linearGradient id="f" x1="4.195" x2="13.352" y1="12.186" y2="12.186" gradientUnits="userSpaceOnUse">
      <stop stop-color="#F6FBFD"/>
      <stop offset=".931" stop-color="#53C3D3"/>
    </linearGradient>
    <linearGradient id="g" x1="2.642" x2="15.382" y1="2.611" y2="15.346" gradientUnits="userSpaceOnUse">
      <stop offset=".124" stop-color="#EC3450"/>
      <stop offset=".438" stop-color="#96517D"/>
      <stop offset=".706" stop-color="#54689F"/>
      <stop offset=".9" stop-color="#2B76B5"/>
      <stop offset=".999" stop-color="#1B7BBD"/>
    </linearGradient>
  </defs>
</svg>
