<svg xmlns="http://www.w3.org/2000/svg" fill="none" viewBox="0 0 12 12">
  <g clip-path="url(#a)">
    <path fill="#B3B3B3" d="M9.25 5.925a1.03 1.03 0 0 1-.276.7l-4.6 4.6a.948.948 0 0 1-.7.275.948.948 0 0 1-.7-.275.948.948 0 0 1-.275-.7.95.95 0 0 1 .275-.7l3.9-3.9-3.9-3.9a.948.948 0 0 1-.275-.7.95.95 0 0 1 .275-.7.948.948 0 0 1 .7-.275c.284 0 .517.092.7.275l4.6 4.6c.1.1.17.208.212.325.042.117.063.242.063.375Z"/>
  </g>
  <defs>
    <clipPath id="a">
      <path fill="#fff" d="M0 12V0h12v12z"/>
    </clipPath>
  </defs>
</svg>
