<svg xmlns="http://www.w3.org/2000/svg" fill="none" viewBox="0 0 15 15">
  <g clip-path="url(#a)">
    <path fill="#BFBFBF" d="M9.46 0a1.5 1.5 0 0 1 1.423 1.026l.407 1.224h2.46a.75.75 0 1 1 0 1.5l-.002.053-.65 9.107A2.25 2.25 0 0 1 10.852 15H4.647a2.25 2.25 0 0 1-2.244-2.09l-.65-9.107a.754.754 0 0 1-.002-.053.75.75 0 0 1 0-1.5h2.46l.407-1.224A1.5 1.5 0 0 1 6.041 0H9.46Zm2.788 3.75H3.252l.647 9.053a.75.75 0 0 0 .747.697h6.208a.75.75 0 0 0 .747-.697l.647-9.053ZM6.25 6a.75.75 0 0 1 .745.662L7 6.75v3.75a.75.75 0 0 1-1.495.088L5.5 10.5V6.75A.75.75 0 0 1 6.25 6Zm3 0a.75.75 0 0 1 .75.75v3.75a.75.75 0 1 1-1.5 0V6.75A.75.75 0 0 1 9.25 6Zm.21-4.5H6.04l-.25.75h3.92l-.25-.75Z"/>
  </g>
  <defs>
    <clipPath id="a">
      <path fill="#fff" d="M0 0h15v15H0z"/>
    </clipPath>
  </defs>
</svg>
