<svg xmlns="http://www.w3.org/2000/svg" fill="none" viewBox="0 0 20 20">
  <g fill="#5F5F5F" clip-path="url(#a)">
    <path d="M19.936 5.903a7.23 7.23 0 0 0-.466-2.457 5.11 5.11 0 0 0-2.924-2.92 7.348 7.348 0 0 0-2.428-.465C13.05.013 12.711 0 9.998 0 7.288 0 6.94 0 5.879.061a7.341 7.341 0 0 0-2.426.466 5.117 5.117 0 0 0-2.924 2.92 7.256 7.256 0 0 0-.466 2.422C.014 6.936 0 7.275 0 9.982c0 2.708 0 3.054.062 4.114a7.29 7.29 0 0 0 .466 2.425 5.11 5.11 0 0 0 2.925 2.918 7.323 7.323 0 0 0 2.427.499C6.95 19.986 7.288 20 10 20s3.06 0 4.12-.062a7.328 7.328 0 0 0 2.428-.465 5.124 5.124 0 0 0 2.925-2.92 7.292 7.292 0 0 0 .465-2.424c.048-1.067.062-1.405.062-4.114-.002-2.707-.002-3.05-.064-4.112Zm-9.944 9.2a5.129 5.129 0 0 1-5.134-5.126A5.129 5.129 0 0 1 9.992 4.85c1.362 0 2.668.54 3.63 1.501a5.121 5.121 0 0 1 0 7.25 5.139 5.139 0 0 1-3.63 1.5Zm5.339-9.246a1.198 1.198 0 0 1-1.197-1.196 1.194 1.194 0 0 1 1.196-1.194 1.198 1.198 0 0 1 1.197 1.194c0 .661-.535 1.196-1.196 1.196Z"/>
    <path d="M9.991 13.308a3.332 3.332 0 0 0 3.336-3.33 3.332 3.332 0 0 0-3.336-3.33 3.332 3.332 0 0 0-3.335 3.33 3.332 3.332 0 0 0 3.335 3.33Z"/>
  </g>
  <defs>
    <clipPath id="a">
      <path fill="#fff" d="M0 0h20v20H0z"/>
    </clipPath>
  </defs>
</svg>
