<svg xmlns="http://www.w3.org/2000/svg" fill="none" viewBox="0 0 12 12">
  <g clip-path="url(#a)">
    <path fill="#5F5F5F" d="M11.027 6.857H6.786v4.286c0 .227-.09.445-.249.606a.844.844 0 0 1-1.2 0 .861.861 0 0 1-.248-.606V6.857H.85a.844.844 0 0 1-.6-.25.862.862 0 0 1 0-1.213.844.844 0 0 1 .6-.251h4.24V.857c0-.227.09-.445.249-.606a.844.844 0 0 1 1.2 0c.158.16.248.379.248.606v4.286h4.24c.226 0 .441.09.6.25a.862.862 0 0 1 0 1.213.844.844 0 0 1-.6.251Z"/>
  </g>
  <defs>
    <clipPath id="a">
      <path fill="#fff" d="M0 0h12v12H0z"/>
    </clipPath>
  </defs>
</svg>
