<svg xmlns="http://www.w3.org/2000/svg" fill="none" viewBox="0 0 16 16">
  <g clip-path="url(#a)">
    <path stroke="#333" stroke-width="1.6" d="M1 14.357V6.488a1.296 1.296 0 0 1 .542-1.051l6.093-4.32a.632.632 0 0 1 .73 0l6.094 4.32A1.283 1.283 0 0 1 15 6.488v7.87c0 .17-.067.333-.186.454a.633.633 0 0 1-.45.188H10.97a.633.633 0 0 1-.45-.188.647.647 0 0 1-.186-.455V10.71a.646.646 0 0 0-.187-.455.633.633 0 0 0-.45-.188H6.303a.633.633 0 0 0-.45.188.646.646 0 0 0-.187.454v3.648a.65.65 0 0 1-.186.455.633.633 0 0 1-.45.188H1.636a.633.633 0 0 1-.45-.188.646.646 0 0 1-.186-.455Z"/>
  </g>
  <defs>
    <clipPath id="a">
      <path fill="#fff" d="M0 0h16v16H0z"/>
    </clipPath>
  </defs>
</svg>
