<svg xmlns="http://www.w3.org/2000/svg" fill="none" viewBox="0 0 16 16">
  <g clip-path="url(#a)">
    <path fill="#BFBFBF" fill-rule="evenodd" d="M11.259 9.6c1.05 0 2.059.399 2.817 1.111a3.97 3.97 0 0 1 1.253 2.716l.004.174v1.6c0 .204-.08.4-.223.548a.822.822 0 0 1-1.401-.455l-.006-.093v-1.6c0-.612-.238-1.202-.666-1.647a2.463 2.463 0 0 0-1.635-.75l-.143-.003H4.74a2.47 2.47 0 0 0-1.677.653A2.38 2.38 0 0 0 2.3 13.46l-.004.14v1.6c0 .205-.08.4-.223.55a.821.821 0 0 1-1.115.063.796.796 0 0 1-.286-.519l-.006-.093v-1.6a3.96 3.96 0 0 1 1.132-2.767 4.107 4.107 0 0 1 2.765-1.23l.177-.003h6.519ZM7.999 0a4.11 4.11 0 0 1 2.881 1.172A3.964 3.964 0 0 1 12.073 4a3.964 3.964 0 0 1-1.193 2.829A4.113 4.113 0 0 1 8 8a4.113 4.113 0 0 1-2.882-1.17A3.964 3.964 0 0 1 3.925 4c0-1.06.43-2.078 1.194-2.828A4.113 4.113 0 0 1 7.999 0Zm0 1.6a2.484 2.484 0 0 0-1.728.703 2.398 2.398 0 0 0-.53.779 2.362 2.362 0 0 0 .53 2.615 2.484 2.484 0 0 0 3.457 0c.458-.45.716-1.06.716-1.697a2.38 2.38 0 0 0-.716-1.697A2.468 2.468 0 0 0 7.999 1.6Z" clip-rule="evenodd"/>
  </g>
  <defs>
    <clipPath id="a">
      <path fill="#fff" d="M0 0h16v16H0z"/>
    </clipPath>
  </defs>
</svg>
