<svg xmlns="http://www.w3.org/2000/svg" fill="none" viewBox="0 0 20 20">
  <g clip-path="url(#a)">
    <path fill="#333" d="M10 .417a9.583 9.583 0 1 0 0 19.166A9.583 9.583 0 0 0 10 .417ZM17.944 9.2h-2.94a13.842 13.842 0 0 0-3.13-6.953 8.008 8.008 0 0 1 6.07 6.953Zm-11.34 1.6h6.793A14.035 14.035 0 0 1 10 17.56a14.035 14.035 0 0 1-3.397-6.76Zm0-1.598A14.034 14.034 0 0 1 10 2.44c1.73 1.9 2.905 4.24 3.397 6.761H6.603Zm1.522-6.953a13.842 13.842 0 0 0-3.13 6.953h-2.94a8.007 8.007 0 0 1 6.07-6.953Zm-6.07 8.519h2.94a13.843 13.843 0 0 0 3.13 6.953 8.008 8.008 0 0 1-6.07-6.921v-.032Zm9.818 6.953a13.842 13.842 0 0 0 3.13-6.953h2.94a8.007 8.007 0 0 1-6.07 6.985v-.032Z"/>
  </g>
  <defs>
    <clipPath id="a">
      <path fill="#fff" d="M0 0h20v20H0z"/>
    </clipPath>
  </defs>
</svg>
