<svg xmlns="http://www.w3.org/2000/svg" fill="none" viewBox="0 0 14 14">
  <g clip-path="url(#a)">
    <path fill="#5F5F5F" d="M13.69.32a1.057 1.057 0 0 0-1.497 0L7 5.504 1.807.31A1.059 1.059 0 0 0 .31 1.807L5.503 7 .31 12.193A1.06 1.06 0 0 0 1.06 14a1.059 1.059 0 0 0 .748-.31L7 8.497l5.193 5.193a1.06 1.06 0 0 0 1.726-.344 1.059 1.059 0 0 0-.23-1.153L8.498 7l5.193-5.193a1.064 1.064 0 0 0 0-1.486Z"/>
  </g>
  <defs>
    <clipPath id="a">
      <path fill="#fff" d="M0 0h14v14H0z"/>
    </clipPath>
  </defs>
</svg>
