<svg xmlns="http://www.w3.org/2000/svg" fill="none" viewBox="0 0 20 20">
  <path fill="#333" d="M19.516 4.783A6.019 6.019 0 0 0 18.2 2.866a6.143 6.143 0 0 0-4.315-1.755A6.183 6.183 0 0 0 10 2.48a6.183 6.183 0 0 0-3.88-1.369 6.143 6.143 0 0 0-4.316 1.755A5.983 5.983 0 0 0 0 7.142c0 .77.157 1.574.47 2.391.262.683.637 1.392 1.116 2.107.76 1.132 1.803 2.313 3.1 3.51a34.653 34.653 0 0 0 4.366 3.41l.549.352a.744.744 0 0 0 .798 0l.549-.352a35.103 35.103 0 0 0 4.366-3.41c1.297-1.197 2.34-2.378 3.1-3.51.48-.715.857-1.424 1.116-2.107.313-.817.47-1.62.47-2.391a5.895 5.895 0 0 0-.484-2.36Z"/>
</svg>
