<svg xmlns="http://www.w3.org/2000/svg" fill="none" viewBox="0 0 14 14">
  <g stroke="#A1A1A1" stroke-linejoin="round" stroke-width="1.3" clip-path="url(#a)">
    <path stroke-linecap="round" d="M3.793 3.626V2.278a.82.82 0 0 1 .82-.82h7.11a.82.82 0 0 1 .82.82v7.11a.82.82 0 0 1-.82.82H10.36"/>
    <path d="M9.389 3.791h-7.11a.82.82 0 0 0-.82.82v7.11a.82.82 0 0 0 .82.82h7.11a.82.82 0 0 0 .82-.82V4.61a.822.822 0 0 0-.82-.82Z"/>
  </g>
  <defs>
    <clipPath id="a">
      <path fill="#fff" d="M0 0h14v14H0z"/>
    </clipPath>
  </defs>
</svg>
