<svg xmlns="http://www.w3.org/2000/svg" fill="none" viewBox="0 0 14 14">
  <path fill="#448FFF" d="M12.479 5.747c-.208-.213-.421-.438-.503-.629-.082-.191-.077-.476-.082-.766-.006-.53-.017-1.137-.438-1.558-.42-.421-1.028-.432-1.558-.438-.29-.005-.585-.01-.766-.082-.18-.07-.416-.295-.629-.503C8.126 1.411 7.693 1 7.125 1c-.569 0-1 .41-1.378.771-.213.208-.438.421-.629.503-.191.082-.476.077-.766.082-.53.006-1.137.017-1.558.438-.421.42-.432 1.028-.438 1.558-.005.29-.01.585-.082.766-.07.18-.295.416-.503.629-.36.377-.771.81-.771 1.378 0 .569.41 1 .771 1.378.208.213.421.438.503.629.082.191.077.476.082.766.006.53.017 1.137.438 1.558.42.421 1.028.432 1.558.438.29.005.585.01.766.082.18.07.416.295.629.503.377.36.81.771 1.378.771.569 0 1-.41 1.378-.771.213-.208.438-.421.629-.503.191-.082.476-.077.766-.082.53-.006 1.137-.017 1.558-.438.421-.42.432-1.028.438-1.558.005-.29.01-.585.082-.766.07-.18.295-.416.503-.629.36-.377.771-.81.771-1.378 0-.569-.41-1-.771-1.378Zm-2.647.383L6.627 9.192a.443.443 0 0 1-.607 0L4.418 7.661a.438.438 0 1 1 .602-.634l1.3 1.241 2.91-2.773a.438.438 0 0 1 .601.635Z"/>
</svg>
