<svg xmlns="http://www.w3.org/2000/svg" fill="none" viewBox="0 0 28 28">
  <path fill="#ADADAD" d="m19.25.933.62-.66L19.611 0h-.362v.933Zm5.25 5.6h.875v-.386l-.256-.274-.619.66Zm-1.75 19.6H5.25V28h17.5v-1.867ZM4.375 25.2V2.8h-1.75v22.4h1.75ZM5.25 1.867h14V0h-14v1.867Zm18.375 4.666V25.2h1.75V6.533h-1.75Zm-4.994-4.939 5.25 5.6 1.238-1.321-5.25-5.6-1.238 1.321ZM5.25 26.134a.848.848 0 0 1-.619-.274.966.966 0 0 1-.256-.66h-1.75c0 .743.277 1.455.769 1.98.492.525 1.16.82 1.856.82v-1.867ZM22.75 28c.696 0 1.364-.295 1.856-.82a2.898 2.898 0 0 0 .769-1.98h-1.75a.966.966 0 0 1-.256.66.848.848 0 0 1-.619.273V28ZM4.375 2.8c0-.248.092-.485.256-.66a.848.848 0 0 1 .619-.273V0c-.696 0-1.364.295-1.856.82a2.898 2.898 0 0 0-.769 1.98h1.75Zm5.806 14.382 3.819 7H6.363l3.818-7Z"/>
  <path fill="#ADADAD" fill-rule="evenodd" d="m15.591 13.363 6.046 10.819h-7l-2.506-4.627 3.46-6.192Z" clip-rule="evenodd"/>
  <circle cx="10.181" cy="14.636" r="1.273" fill="#ADADAD"/>
</svg>
