<svg xmlns="http://www.w3.org/2000/svg" fill="none" viewBox="0 0 20 20">
  <g clip-path="url(#a)">
    <path fill="#62DB75" d="M8.6 11.8 6.425 9.625a.89.89 0 0 0-.687-.262.976.976 0 0 0-.688.287.948.948 0 0 0-.275.7.95.95 0 0 0 .275.7L7.9 13.9a.948.948 0 0 0 .7.275.948.948 0 0 0 .7-.275l5.675-5.675a.894.894 0 0 0 .263-.688.979.979 0 0 0-.288-.687.948.948 0 0 0-.7-.275.948.948 0 0 0-.7.275L8.6 11.8ZM10 20a9.733 9.733 0 0 1-3.9-.788 10.092 10.092 0 0 1-3.175-2.137c-.9-.9-1.612-1.958-2.137-3.175A9.732 9.732 0 0 1 0 10a9.74 9.74 0 0 1 .788-3.9 10.092 10.092 0 0 1 2.137-3.175c.9-.9 1.958-1.613 3.175-2.138A9.743 9.743 0 0 1 10 0a9.74 9.74 0 0 1 3.9.787 10.105 10.105 0 0 1 3.175 2.138c.9.9 1.612 1.958 2.137 3.175A9.733 9.733 0 0 1 20 10a9.733 9.733 0 0 1-.788 3.9 10.092 10.092 0 0 1-2.137 3.175c-.9.9-1.958 1.612-3.175 2.137A9.733 9.733 0 0 1 10 20Zm0-2c2.217 0 4.104-.779 5.663-2.337C17.221 14.104 18 12.217 18 10s-.779-4.104-2.337-5.663C14.104 2.779 12.217 2 10 2s-4.104.779-5.662 2.337C2.779 5.896 2 7.783 2 10s.78 4.104 2.338 5.663C5.896 17.221 7.783 18 10 18Z"/>
  </g>
  <defs>
    <clipPath id="a">
      <path fill="#fff" d="M0 0h20v20H0z"/>
    </clipPath>
  </defs>
</svg>
