<svg xmlns="http://www.w3.org/2000/svg" fill="none" viewBox="0 0 16 16">
  <g fill="#333" stroke="#333" stroke-width=".3" clip-path="url(#a)">
    <path d="M5.857.5H1.571A1.071 1.071 0 0 0 .5 1.571v4.286A1.071 1.071 0 0 0 1.571 6.93h4.286A1.071 1.071 0 0 0 6.93 5.857V1.571A1.071 1.071 0 0 0 5.857.5ZM1.571 5.857V1.571h4.286v4.286H1.571ZM14.43.5h-4.286a1.071 1.071 0 0 0-1.072 1.071v4.286a1.071 1.071 0 0 0 1.072 1.072h4.285a1.071 1.071 0 0 0 1.072-1.072V1.571A1.071 1.071 0 0 0 14.429.5Zm-4.286 5.357V1.571h4.285v4.286h-4.285ZM5.857 9.07H1.571A1.071 1.071 0 0 0 .5 10.142v4.286a1.072 1.072 0 0 0 1.071 1.07h4.286a1.072 1.072 0 0 0 1.072-1.07v-4.286A1.071 1.071 0 0 0 5.857 9.07Zm-4.286 5.357v-4.285h4.286v4.286H1.571ZM14.43 9.07h-4.286a1.071 1.071 0 0 0-1.072 1.072v4.286a1.072 1.072 0 0 0 1.072 1.07h4.285a1.071 1.071 0 0 0 1.072-1.07v-4.286a1.071 1.071 0 0 0-1.072-1.072Zm-4.286 5.357v-4.285h4.285v4.286h-4.285Z"/>
  </g>
  <defs>
    <clipPath id="a">
      <path fill="#fff" d="M0 0h16v16H0z"/>
    </clipPath>
  </defs>
</svg>
