<svg xmlns="http://www.w3.org/2000/svg" fill="none" viewBox="0 0 12 12">
  <g clip-path="url(#a)">
    <path fill="#5F5F5F" d="M5.925 2.75a1.03 1.03 0 0 1 .7.275l4.6 4.6a.948.948 0 0 1 .275.7.948.948 0 0 1-.275.7.948.948 0 0 1-.7.275.948.948 0 0 1-.7-.275l-3.9-3.9-3.9 3.9a.948.948 0 0 1-.7.275.948.948 0 0 1-.7-.275.948.948 0 0 1-.275-.7c0-.284.092-.517.275-.7l4.6-4.6c.1-.1.208-.17.325-.212.117-.042.242-.063.375-.063Z"/>
  </g>
  <defs>
    <clipPath id="a">
      <path fill="#fff" d="M12 12H0V0h12z"/>
    </clipPath>
  </defs>
</svg>
